<svg width="24" height="30" viewBox="0 0 24 30" fill="none" xmlns="http://www.w3.org/2000/svg">
<path d="M11.9993 29.1657C10.4345 29.1657 9.16601 27.8972 9.16601 26.3324H14.8327C14.8327 27.8972 13.5642 29.1657 11.9993 29.1657ZM23.3327 24.9157H0.666016V22.0824L3.49935 20.6657V12.874C3.42471 10.8753 3.87609 8.89195 4.80835 7.12235C5.73632 5.48116 7.3225 4.31576 9.16601 3.92069V0.832354H14.3312C12.4901 2.88997 12.1828 5.89892 13.57 8.28621C14.9572 10.6735 17.7235 11.8964 20.4228 11.3157C20.4724 11.8214 20.4965 12.3456 20.4965 12.874V20.6657L23.3298 22.0824V24.9157H23.3327ZM19.0827 9.33235C16.8298 9.32886 14.971 7.56797 14.8458 5.31855C14.7206 3.06912 16.3725 1.11284 18.6111 0.859347C20.8497 0.605859 22.8971 2.14326 23.2781 4.36372C23.659 6.58418 22.2411 8.71611 20.046 9.22327C19.73 9.29585 19.4069 9.33244 19.0827 9.33235Z" fill="url(#paint0_linear_5768_812)" fill-opacity="0.88"/>
<defs>
<linearGradient id="paint0_linear_5768_812" x1="3.47602" y1="32.8086" x2="26.4337" y2="29.6963" gradientUnits="userSpaceOnUse">
<stop stop-color="#96700B"/>
<stop offset="0.130095" stop-color="#9D6E08"/>
<stop offset="0.234375" stop-color="#C69609"/>
<stop offset="0.416667" stop-color="#BB9121"/>
<stop offset="0.557292" stop-color="#D6A70C"/>
<stop offset="0.753689" stop-color="#AF7E08"/>
<stop offset="0.869792" stop-color="#E2A400"/>
<stop offset="1" stop-color="#E7A507"/>
</linearGradient>
</defs>
</svg>
