<svg width="24" height="21" viewBox="0 0 24 21" fill="none" xmlns="http://www.w3.org/2000/svg">
<path d="M21.333 2.625H17.5997L15.4997 0.375H8.49967L6.39967 2.625H2.66634C1.38301 2.625 0.333008 3.6375 0.333008 4.875V18.375C0.333008 19.6125 1.38301 20.625 2.66634 20.625H21.333C22.6163 20.625 23.6663 19.6125 23.6663 18.375V4.875C23.6663 3.6375 22.6163 2.625 21.333 2.625ZM21.333 18.375H11.9997V17.25C8.73301 17.25 6.16634 14.775 6.16634 11.625C6.16634 8.475 8.73301 6 11.9997 6V4.875H21.333V18.375ZM17.833 11.625C17.833 8.475 15.2663 6 11.9997 6V8.025C14.0997 8.025 15.733 9.6 15.733 11.625C15.733 13.65 14.0997 15.225 11.9997 15.225V17.25C15.2663 17.25 17.833 14.775 17.833 11.625ZM8.26634 11.625C8.26634 13.65 9.89968 15.225 11.9997 15.225V8.025C9.89968 8.025 8.26634 9.6 8.26634 11.625Z" fill="white"/>
</svg>
