<svg width="47" height="50" viewBox="0 0 47 50" fill="none" xmlns="http://www.w3.org/2000/svg">
<path d="M32.5378 0.361298C24.7376 0.361298 18.4143 4.07091 18.4143 8.65361C18.4143 13.2363 24.7394 16.9478 32.5378 16.9478C40.338 16.9478 46.6613 13.2363 46.6613 8.65361C46.6613 4.07091 40.3362 0.359375 32.5378 0.359375V0.361298ZM46.6613 11.1171C46.6577 15.6998 40.338 19.4113 32.5378 19.4113C24.7593 19.4113 18.4505 15.7401 18.4143 11.1786V14.4228C18.4143 16.3805 19.5929 18.1728 21.5236 19.5921C23.4759 20.1575 25.2149 20.9421 26.6628 21.9344C28.4579 22.419 30.4319 22.7151 32.5378 22.7151C40.338 22.7151 46.6613 19.0055 46.6613 14.4228V11.1171ZM46.6613 16.8863C46.6613 21.469 40.338 25.1805 32.5378 25.1805C31.5888 25.1805 30.6669 25.1055 29.7702 24.9998C30.4778 26.0135 30.9604 27.1844 31.1821 28.4248C31.6322 28.4517 32.0769 28.4844 32.5378 28.4844C40.338 28.4844 46.6613 24.7748 46.6613 20.1921V16.8863ZM14.4609 21.5132C6.66071 21.5132 0.337402 25.2248 0.337402 29.8075C0.337402 34.3901 6.66252 38.1017 14.4609 38.1017C22.2611 38.1017 28.5844 34.3901 28.5844 29.8075C28.5844 25.2248 22.2593 21.5132 14.4609 21.5132ZM46.6613 22.6555C46.6577 27.2382 40.338 30.9498 32.5378 30.9498C32.0841 30.9498 31.6249 30.9151 31.1821 30.8882C31.1622 31.0325 31.1513 31.2248 31.126 31.369C31.2164 31.6594 31.2941 31.9459 31.2941 32.2728V34.1959C31.7045 34.2171 32.1166 34.2536 32.5378 34.2536C40.338 34.2536 46.6613 30.544 46.6613 25.9613V22.6555ZM46.6613 28.4248C46.6577 33.0075 40.338 36.719 32.5378 36.719C32.0841 36.719 31.6249 36.6844 31.1821 36.6575C31.1622 36.8017 31.1513 36.994 31.126 37.1382C31.2164 37.4267 31.2941 37.7151 31.2941 38.0421V39.9651C31.7045 39.9863 32.1166 40.0228 32.5378 40.0228C40.338 40.0228 46.6613 36.3132 46.6613 31.7305V28.4248ZM28.5844 32.2709C28.5808 36.8536 22.2611 40.5651 14.4609 40.5651C6.6824 40.5651 0.373556 36.894 0.337402 32.3305V35.5767C0.337402 40.1594 6.6589 43.8709 14.4609 43.8709C22.2629 43.8709 28.5844 40.1594 28.5844 35.5767V32.2709ZM28.5844 38.0401C28.5808 42.6228 22.2611 46.3344 14.4609 46.3344C6.6824 46.3344 0.373556 42.6632 0.337402 38.0998V41.3459C0.337402 45.9286 6.6589 49.6401 14.4609 49.6401C22.2629 49.6401 28.5844 45.9286 28.5844 41.3459V38.0401Z" fill="url(#paint0_linear_2152_16967)" fill-opacity="0.88"/>
<defs>
<linearGradient id="paint0_linear_2152_16967" x1="6.0784" y1="55.9762" x2="52.6629" y2="48.5581" gradientUnits="userSpaceOnUse">
<stop stop-color="#96700B"/>
<stop offset="0.130095" stop-color="#9D6E08"/>
<stop offset="0.234375" stop-color="#C69609"/>
<stop offset="0.416667" stop-color="#BB9121"/>
<stop offset="0.557292" stop-color="#D6A70C"/>
<stop offset="0.753689" stop-color="#AF7E08"/>
<stop offset="0.869792" stop-color="#E2A400"/>
<stop offset="1" stop-color="#E7A507"/>
</linearGradient>
</defs>
</svg>
