<svg width="22" height="22" viewBox="0 0 22 22" fill="none" xmlns="http://www.w3.org/2000/svg">
<path d="M6.1875 18.0449C7.5588 19.1251 9.25434 19.7113 11 19.7087C12.8164 19.7087 14.4879 19.0872 15.8125 18.0449" stroke="black" stroke-width="2"/>
<path d="M8.70899 4.4668C5.52403 5.44534 3.20898 8.4103 3.20898 11.9161C3.20898 12.7984 3.35565 13.6463 3.62607 14.4369" stroke="black" stroke-width="2"/>
<path d="M13.292 4.4668C16.477 5.44534 18.792 8.4103 18.792 11.9161C18.792 12.7984 18.6453 13.6463 18.3749 14.4369" stroke="black" stroke-width="2"/>
<path d="M19.7083 16.5004C19.7083 17.1155 19.4663 17.6737 19.0722 18.0853C18.7041 18.4698 18.2136 18.7143 17.6849 18.7766C17.1563 18.8389 16.6224 18.7152 16.175 18.4268C15.7276 18.1383 15.3945 17.7031 15.233 17.1959C15.0715 16.6887 15.0916 16.141 15.2899 15.647C15.4882 15.153 15.8523 14.7434 16.3197 14.4886C16.7871 14.2338 17.3286 14.1496 17.8512 14.2506C18.3739 14.3515 18.8451 14.6313 19.184 15.0418C19.5229 15.4523 19.7083 15.968 19.7083 16.5004Z" fill="black" stroke="black" stroke-width="2" stroke-linecap="round" stroke-linejoin="round"/>
<path d="M6.87533 16.5004C6.87533 17.1155 6.63333 17.6737 6.23916 18.0853C5.87107 18.4698 5.38058 18.7143 4.85191 18.7766C4.32325 18.8389 3.78937 18.7152 3.34196 18.4268C2.89454 18.1383 2.5615 17.7031 2.4 17.1959C2.2385 16.6887 2.25863 16.141 2.45692 15.647C2.65521 15.153 3.0193 14.7434 3.48668 14.4886C3.95406 14.2338 4.49557 14.1496 5.01824 14.2506C5.54091 14.3515 6.01213 14.6313 6.351 15.0418C6.68988 15.4523 6.87526 15.968 6.87533 16.5004Z" fill="black" stroke="black" stroke-width="2" stroke-linecap="round" stroke-linejoin="round"/>
<path d="M13.2923 4.12537C13.2923 4.74045 13.0503 5.2987 12.6562 5.71029C12.2881 6.09484 11.7976 6.33926 11.2689 6.40157C10.7402 6.46388 10.2064 6.3402 9.75895 6.05177C9.31154 5.76334 8.97849 5.32814 8.81699 4.8209C8.65549 4.31366 8.67562 3.76602 8.87391 3.27201C9.0722 2.77799 9.43629 2.36841 9.90367 2.1136C10.3711 1.85878 10.9126 1.77462 11.4352 1.87557C11.9579 1.97652 12.4291 2.25627 12.768 2.66681C13.1069 3.07734 13.2923 3.59304 13.2923 4.12537Z" fill="black" stroke="black" stroke-width="2" stroke-linecap="round" stroke-linejoin="round"/>
</svg>
