<svg width="20" height="20" viewBox="0 0 20 20" fill="none" xmlns="http://www.w3.org/2000/svg">
<path d="M10.0004 0.398438C4.70541 0.398438 0.399414 4.70544 0.399414 9.99844C0.399414 15.2914 4.70541 19.5984 10.0004 19.5984C15.2934 19.5984 19.6004 15.2914 19.6004 9.99844C19.6004 4.70544 15.2934 0.398438 10.0004 0.398438ZM18.1884 9.99844C18.1884 11.8714 17.5524 13.5984 16.4924 14.9784C16.1924 14.7444 15.8734 14.1114 16.1734 13.4554C16.4764 12.7954 16.5554 11.2674 16.4854 10.6724C16.4194 10.0784 16.1104 8.64744 15.2714 8.63344C14.4334 8.62144 13.8584 8.34444 13.3604 7.35044C12.3274 5.28244 15.2994 4.88544 14.2664 3.74144C13.9774 3.41944 12.4834 5.06344 12.2644 2.87244C12.2504 2.71544 12.3994 2.48044 12.6004 2.23644C15.8444 3.32644 18.1884 6.39344 18.1884 9.99844ZM8.87541 1.89144C8.67941 2.27344 8.16242 2.42844 7.84841 2.71544C7.16441 3.33444 6.87041 3.24844 6.50241 3.84244C6.13141 4.43644 4.93541 5.29144 4.93541 5.72144C4.93541 6.15144 5.53941 6.65744 5.84141 6.55944C6.14341 6.45944 6.94041 6.46544 7.40841 6.62944C7.87741 6.79544 11.3224 6.96144 10.2244 9.87344C9.87642 10.7994 8.35142 10.6434 7.94542 12.1764C7.88442 12.4014 7.67341 13.3624 7.66041 13.6764C7.63541 14.1624 8.00441 15.9944 7.53541 15.9944C7.06441 15.9944 5.79741 14.3554 5.79741 14.0584C5.79741 13.7614 5.46941 12.7204 5.46941 11.8284C5.46941 10.9374 3.95141 10.9514 3.95141 9.76644C3.95141 8.69844 4.77441 8.16644 4.58941 7.65344C4.40841 7.14344 2.96241 7.12644 2.35941 7.06344C2.88666 5.69927 3.76861 4.50064 4.91413 3.59139C6.05965 2.68215 7.42718 2.09528 8.87541 1.89144ZM7.42441 17.7684C7.91641 17.5084 7.96641 17.1724 8.41241 17.1554C8.92241 17.1324 9.33741 16.9564 9.91241 16.8294C10.4224 16.7184 11.3354 16.2004 12.1384 16.1344C12.8164 16.0794 14.1534 16.1694 14.5134 16.8234C13.4811 17.5089 12.3063 17.9503 11.078 18.114C9.84968 18.2778 8.60022 18.1596 7.42441 17.7684Z" fill="black"/>
</svg>
