<svg width="30" height="30" viewBox="0 0 30 30" fill="none" xmlns="http://www.w3.org/2000/svg">
<path d="M15.0007 0.832031C12.1988 0.832031 9.45978 1.66289 7.13008 3.21955C4.80038 4.7762 2.98461 6.98873 1.91236 9.57735C0.840123 12.166 0.559575 15.0144 1.1062 17.7625C1.65282 20.5105 3.00207 23.0348 4.98331 25.016C6.96456 26.9973 9.48882 28.3465 12.2369 28.8932C14.9849 29.4398 17.8334 29.1592 20.422 28.087C23.0106 27.0147 25.2232 25.199 26.7798 22.8693C28.3365 20.5396 29.1673 17.8006 29.1673 14.9987C29.1673 13.1383 28.8009 11.2961 28.089 9.57735C27.377 7.85857 26.3335 6.29685 25.018 4.98135C23.7025 3.66586 22.1408 2.62235 20.422 1.9104C18.7032 1.19846 16.8611 0.832031 15.0007 0.832031ZM15.0007 23.4987C14.7205 23.4987 14.4466 23.4156 14.2136 23.2599C13.9806 23.1043 13.7991 22.883 13.6918 22.6242C13.5846 22.3653 13.5566 22.0805 13.6112 21.8057C13.6659 21.5308 13.8008 21.2784 13.9989 21.0803C14.197 20.8822 14.4495 20.7472 14.7243 20.6926C14.9991 20.6379 15.2839 20.666 15.5428 20.7732C15.8017 20.8804 16.0229 21.062 16.1786 21.295C16.3342 21.5279 16.4173 21.8018 16.4173 22.082C16.4173 22.4578 16.2681 22.8181 16.0024 23.0838C15.7367 23.3494 15.3764 23.4987 15.0007 23.4987ZM16.4173 16.1887V17.832C16.4173 18.2078 16.2681 18.5681 16.0024 18.8338C15.7367 19.0994 15.3764 19.2487 15.0007 19.2487C14.6249 19.2487 14.2646 19.0994 13.9989 18.8338C13.7332 18.5681 13.584 18.2078 13.584 17.832V14.9987C13.584 14.623 13.7332 14.2626 13.9989 13.997C14.2646 13.7313 14.6249 13.582 15.0007 13.582C15.4209 13.582 15.8318 13.4574 16.1812 13.2239C16.5307 12.9904 16.8031 12.6585 16.9639 12.2702C17.1247 11.8819 17.1668 11.4547 17.0848 11.0425C17.0028 10.6303 16.8004 10.2516 16.5033 9.95443C16.2061 9.65724 15.8274 9.45486 15.4152 9.37286C15.003 9.29087 14.5757 9.33295 14.1875 9.49379C13.7992 9.65462 13.4673 9.92699 13.2338 10.2764C13.0003 10.6259 12.8757 11.0367 12.8757 11.457C12.8757 11.8328 12.7264 12.1931 12.4607 12.4588C12.195 12.7244 11.8347 12.8737 11.459 12.8737C11.0833 12.8737 10.7229 12.7244 10.4573 12.4588C10.1916 12.1931 10.0423 11.8328 10.0423 11.457C10.0386 10.5366 10.2912 9.63335 10.7717 8.84834C11.2523 8.06334 11.9418 7.42758 12.7632 7.01225C13.5846 6.59692 14.5053 6.41841 15.4224 6.49671C16.3395 6.57501 17.2167 6.90702 17.9558 7.45558C18.6948 8.00415 19.2666 8.7476 19.6072 9.60271C19.9477 10.4578 20.0434 11.3908 19.8838 12.2973C19.7241 13.2037 19.3152 14.0479 18.703 14.7351C18.0908 15.4224 17.2994 15.9257 16.4173 16.1887Z" fill="#E6B330"/>
</svg>
