<svg width="23" height="23" viewBox="0 0 23 23" fill="none" xmlns="http://www.w3.org/2000/svg">
<path d="M13.6828 3.62675L19.3753 9.31925L8.19503 20.5017C7.88357 20.8133 7.49618 21.0383 7.07115 21.1542L1.31565 22.7236C1.17221 22.7625 1.02102 22.7629 0.877402 22.7246C0.733782 22.6863 0.602825 22.6108 0.497781 22.5056C0.392738 22.4004 0.317337 22.2694 0.279209 22.1257C0.241082 21.9821 0.24158 21.8309 0.280655 21.6875L1.85003 15.932C1.96602 15.507 2.19093 15.1196 2.50253 14.8081L13.6805 3.62675H13.6828ZM21.659 1.343C22.4139 2.09788 22.838 3.1217 22.838 4.18925C22.838 5.2568 22.4139 6.28062 21.659 7.0355L20.5678 8.12675L14.8753 2.43425L15.9665 1.343C16.7214 0.588138 17.7452 0.164062 18.8128 0.164062C19.8803 0.164062 20.9042 0.588138 21.659 1.343Z" fill="#868686"/>
</svg>
