<svg width="21" height="14" viewBox="0 0 21 14" fill="none" xmlns="http://www.w3.org/2000/svg">
<path d="M6.3 7C8.33109 7 9.975 5.43437 9.975 3.5C9.975 1.56562 8.33109 0 6.3 0C4.26891 0 2.625 1.56562 2.625 3.5C2.625 5.43437 4.26891 7 6.3 7ZM8.82 8H8.54766C7.86516 8.3125 7.10719 8.5 6.3 8.5C5.49281 8.5 4.73812 8.3125 4.05234 8H3.78C1.69312 8 0 9.6125 0 11.6V12.5C0 13.3281 0.705469 14 1.575 14H11.025C11.8945 14 12.6 13.3281 12.6 12.5V11.6C12.6 9.6125 10.9069 8 8.82 8ZM15.75 7C17.4891 7 18.9 5.65625 18.9 4C18.9 2.34375 17.4891 1 15.75 1C14.0109 1 12.6 2.34375 12.6 4C12.6 5.65625 14.0109 7 15.75 7ZM17.325 8H17.2003C16.7442 8.15 16.2619 8.25 15.75 8.25C15.2381 8.25 14.7558 8.15 14.2997 8H14.175C13.5056 8 12.8887 8.18437 12.3473 8.48125C13.148 9.30312 13.65 10.3938 13.65 11.6V12.8C13.65 12.8688 13.6336 12.9344 13.6303 13H19.425C20.2945 13 21 12.3281 21 11.5C21 9.56563 19.3561 8 17.325 8Z" fill="#444444"/>
</svg>
